{
    "asset" : {
        "generator" : "Khronos glTF Blender I/O v1.8.19",
        "version" : "2.0"
    },
    "scene" : 0,
    "scenes" : [
        {
            "name" : "Scene",
            "nodes" : [
                0
            ]
        }
    ],
    "nodes" : [
        {
            "mesh" : 0,
            "name" : "Grid"
        }
    ],
    "meshes" : [
        {
            "name" : "Grid",
            "primitives" : [
                {
                    "attributes" : {
                        "POSITION" : 0,
                        "NORMAL" : 1,
                        "TANGENT" : 2,
                        "TEXCOORD_0" : 3
                    },
                    "indices" : 4
                }
            ]
        }
    ],
    "accessors" : [
        {
            "bufferView" : 0,
            "componentType" : 5126,
            "count" : 808,
            "max" : [
                30.189220428466797,
                23.613292694091797,
                30.189220428466797
            ],
            "min" : [
                -30.189220428466797,
                -4.546781063079834,
                -30.189220428466797
            ],
            "type" : "VEC3"
        },
        {
            "bufferView" : 1,
            "componentType" : 5126,
            "count" : 808,
            "type" : "VEC3"
        },
        {
            "bufferView" : 2,
            "componentType" : 5126,
            "count" : 808,
            "type" : "VEC4"
        },
        {
            "bufferView" : 3,
            "componentType" : 5126,
            "count" : 808,
            "type" : "VEC2"
        },
        {
            "bufferView" : 4,
            "componentType" : 5123,
            "count" : 1140,
            "type" : "SCALAR"
        }
    ],
    "bufferViews" : [
        {
            "buffer" : 0,
            "byteLength" : 9696,
            "byteOffset" : 0
        },
        {
            "buffer" : 0,
            "byteLength" : 9696,
            "byteOffset" : 9696
        },
        {
            "buffer" : 0,
            "byteLength" : 12928,
            "byteOffset" : 19392
        },
        {
            "buffer" : 0,
            "byteLength" : 6464,
            "byteOffset" : 32320
        },
        {
            "buffer" : 0,
            "byteLength" : 2280,
            "byteOffset" : 38784
        }
    ],
    "buffers" : [
        {
            "byteLength" : 41064,
            "uri" : "data:application/octet-stream;base64,"
        }
    ]
}
